<?xml version="1.0" encoding="UTF-8"?>
<svg version="1.1" viewBox="0 0 1376 1372" width="1280" height="1280" xmlns="http://www.w3.org/2000/svg">
<path transform="translate(664,38)" d="m0 0h44l30 2 33 4 28 5 37 10 35 12 21 9 30 14 24 13 24 14 15 10 18 13 16 13 14 12 10 9 8 7 11 13 8 7 10 10 9 11 9 10 13 17 13 18 10 15 8 14 13 24 13 27 14 33 12 37 9 36 5 27 4 34 1 19v43l-2 25-4 28-7 35-8 30-14 39-13 29-11 21-12 21-10 19-8 12-10 14-11 13-11 12-9 11-6 7h-2l-2 4-16 16-7 8-10 10-11 9-16 12-11 8-19 14-14 10-19 12-18 10-19 10-28 13-42 14-37 10-29 6-27 4-32 3h-51l-25-2-35-5-37-7-15-4-3-2 2-4 7-6 20-11 18-12 14-10 16-12 26-22 14-11 12-10 11-8 10-9 11-9 8-8 7-8 38-38 8-7 11-11 1-2h2l2-4 11-12 10-14 8-9 11-14 12-14 9-11 10-13 10-14 12-17 9-15 9-13 7-10 16-25 15-25 11-19 9-14 11-19 6 4v2h2l5 5 7 8 8 7 14 12 18 18 8 7 10 10 9 11 9 9v2h2l4 4v2l4 2 8 8 9 7 10 9 3 4h2l11-28 8-26 6-25 4-26 2-33v-54l-1-24-3-25-6-27-10-33-10-27-9-20-13-25-13-23-13-19-11-17-10-11-9-11-16-17-7-7v-2l-3-1-17-17-11-9-7-7-11-7-20-14-17-11-24-14-16-9-20-9-26-10-32-10-25-5-40-5-38-3h-26l-21 1-34 4-28 4-23 5-36 12-31 13-19 9-15 9-19 12-33 22-13 9-8 7h-2v2h-2v2h-2l-2 4-8 8h-2l-2 4h-2l-2 4-17 17-11 14-14 15-10 13-10 15-8 16-12 21-12 22-12 29-11 33-8 30-5 27-3 26-1 13v53l3 28 6 34 7 28 10 30 5 12v3l5-2 11-11h2v-2l11-8 7-7 7-8 27-27h2l2-4h2l2-4 8-8h2l1-3 8-7 8-8 7-6h2l1-3h2l2-4 8-8 1-2h2v-2h2v-2h2v-2l8-7 50-50 8-7 9-10 59-59h2v-2l11-9 16-17 1-2h2v-2h2l2-4 23-23 8-7 9-9h2v-2l8-7 11-9 7-8 12-12 5-6 8-7 21-21 5 1 7 8 20 20 7 8 1 3h2l6 7 2 1v2l4 2 7 7 8 7 10 9 13 13 5 6-1 4-8 11-12 14-7 9-9 10-8 11-14 19-6 10-10 14-13 18-14 17-26 34-12 16-8 12-11 13-7 7-9 11-10 11-9 11-9 9-1 2h-2l-2 4-14 14-7 8-5 6-8 7-10 9-16 16-8 7-20 18-8 7-10 9-13 11-11 7-14 11-17 13-19 14-15 11-16 11-5 5 7 8 16 14 6 6v2h2l7 8 8 8 5-1 24-16 13-10 18-11 11-10 9-7 14-11 13-11 9-7 14-12 11-9 15-14 8-7 17-17 8-7 11-11 1-2h2l2-4 14-14 5-6 5-5 12-13 10-11 8-10 11-13 8-10 14-17 10-12 7-8 9-12 7-11 12-16 28-38 10-12 12-16 11-15 8-13 16-21 7-8 5 2 5 5v2l4 2 36 36 9 11 9 10 9 9 7 6-8 16-14 25-8 16-13 22-7 10-10 16-11 17-12 18-13 19-9 10-12 19-11 14-10 13-13 16-12 14-12 12-1 2h-2l-2 4-11 12-10 13-6 7h-2l-2 4-25 25-22 18-14 13-12 12-8 7-11 9-16 13-16 12-13 8-15 11-14 10-16 10-19 12-24 14-14 8-1 2-5-1-20-11-20-12-23-15-13-10-12-9-15-11-10-7-14-12-10-9-8-7-7-8-9-11-12-14-10-11-7-8-14-19-12-18-13-21-9-16-12-26-12-28-13-36-6-19-7-30-5-30-2-18-2-29v-38l3-42 5-33 9-36 11-35 8-21 16-35 14-29 11-18 7-10 12-17 10-13 11-14 11-13 4-5 5-5 9-10 13-13h2v-2l8-7 12-11 11-9 10-8 21-16h2v-2l15-10 44-24 19-9 16-8 14-6 28-10 18-6 38-10 27-5 27-4z" fill="#FEFEFE"/>
<path transform="translate(555,1117)" d="m0 0h2l1 6-1 184-7 1h-34l-1-1-1-16-1-61-10 10-9 11-12 15-10 13-5-5-12-16-14-17-9-10-1 75-4 2h-38l-1-1-1-53 1-134h4l9 10 9 9 7 8 11 12 7 8 9 10 7 8 12 13 8 8 4-2 10-9 7-8 9-10 7-8 12-14 7-8 3-4h2l2-4 10-10 1-2h2l2-4z" fill="#FEFEFE"/>
<path transform="translate(705,1119)" d="m0 0 4 2 11 22 8 19 17 35 11 20 11 23 21 42 9 17 3 6-1 3h-48l-3-4-9-19-1-1h-66l-2 5-9 18-7 1h-41l1-4 8-17 10-19 12-28 9-19 12-22 12-23 9-17 11-23zm0 96-5 8-7 15v4h27l-1-6-10-19z" fill="#FEFEFE"/>
<path transform="translate(854,1119)" d="m0 0h42l2 2v143h85l1 2v40l-2 2h-127l-1-1-1-15v-172z" fill="#FEFEFE"/>
</svg>
